# xmcd CD database file
#
# Track frame offsets:
#	150
#	14045
#	28810
#	48767
#	63640
#	79142
#	93782
#	105677
#	116002
#	130870
#	144015
#	158392
#
# Disc length: 2370 seconds
#
# Revision: 4
# Processed by: cddbd v1.5.1PL0 Copyright (c) Steve Scherf et al.
# Submitted via: CDex 1.51
#
DISCID=9209400c
DTITLE=David and Marcel - Voltando Pra Casa
DYEAR=2005
DGENRE=Country
TTITLE0=Jogo Duro
TTITLE1=Vida de Peão
TTITLE2=Dono de Mim
TTITLE3=Soberana
TTITLE4=Solidão
TTITLE5=Treme Viola
TTITLE6=To Façinho
TTITLE7=Pegu Memo
TTITLE8=Boi Pulandeiro
TTITLE9=Não Aguenta Bebe Leite
TTITLE10=Festa de Cowboy
TTITLE11=Voltando Pra Casa
EXTD=YEAR: 2005
EXTT0=
EXTT1=
EXTT2=
EXTT3=
EXTT4=
EXTT5=
EXTT6=
EXTT7=
EXTT8=
EXTT9=
EXTT10=
EXTT11=
PLAYORDER=
